<?xml version="1.0" standalone="no"?>
<!DOCTYPE svg PUBLIC "-//W3C//DTD SVG 20010904//EN"
 "http://www.w3.org/TR/2001/REC-SVG-20010904/DTD/svg10.dtd">
<svg version="1.0" xmlns="http://www.w3.org/2000/svg"
 width="110.000000pt" height="110.000000pt" viewBox="0 0 110.000000 110.000000"
 preserveAspectRatio="xMidYMid meet">

<g transform="translate(0.000000,110.000000) scale(0.100000,-0.100000)" stroke="none">
<path fill="#FF0000" d="M0 550 l0 -550 550 0 550 0 0 550 0 550 -550 0 -550 0 0 -550z m430
330 c0 -16 -7 -20 -35 -20 l-35 0 0 -81 c0 -78 -1 -80 -22 -77 -21 3 -23 9
-26 81 l-3 77 -34 0 c-23 0 -35 5 -35 13 0 24 12 27 102 27 81 0 88 -2 88 -20z
m363 -229 c106 -40 80 -191 -33 -191 -31 0 -47 6 -65 26 -14 15 -25 31 -25 35
0 5 -69 9 -154 9 l-155 0 -3 -32 c-2 -25 -8 -33 -23 -33 -19 0 -20 7 -20 90 0
86 1 90 23 93 19 3 22 -1 22 -32 l0 -36 153 0 154 0 11 25 c7 15 27 32 45 40
39 17 40 17 70 6z m19 -282 c15 -19 17 -31 9 -50 -6 -16 -6 -31 1 -42 13 -24
-11 -71 -40 -75 -16 -3 -22 2 -22 16 0 11 6 22 13 25 10 3 10 9 0 26 -7 11
-13 27 -13 35 0 8 6 16 13 19 10 3 10 9 0 26 -31 52 2 69 39 20z"/>
<path fill="#FF0000" d="M726 594 c-33 -33 -7 -94 41 -94 25 0 53 30 53 57 0 44 -63 69 -94
37z"/>
</g>
</svg>
